Coordinates
version=1
nRows=19
nColumns=24
inDegrees=yes

Units are S.I. units (second, meters, Newtons, ...)
Angles are in degrees.

endheader
time	pelvis_tilt	pelvis_list	pelvis_rotation	pelvis_tx	pelvis_ty	pelvis_tz	hip_flexion_r	hip_adduction_r	hip_rotation_r	knee_angle_r	ankle_angle_r	subtalar_angle_r	mtp_angle_r	hip_flexion_l	hip_adduction_l	hip_rotation_l	knee_angle_l	ankle_angle_l	subtalar_angle_l	mtp_angle_l	lumbar_extension	lumbar_bending	lumbar_rotation
      1.10400000	     -2.07514165	      2.47866671	     -5.22469041	      0.16162002	      1.07332238	      0.28105301	     19.63558467	     -6.09139087	     -4.56968423	    -71.73657105	     -1.87107319	    -10.32000539	      3.88282898	     11.27497909	      3.70610389	      0.62182398	    -14.27242151	      8.68680052	      0.99240190	      0.06937597	    -10.80346418	     -4.00165901	      1.13836270
      1.10816667	     -2.02833992	      2.35234832	     -5.19345819	      0.16641268	      1.07436732	      0.28083244	     20.08980959	     -5.93599286	     -4.70680027	    -71.47294390	     -1.59030705	    -10.17796721	      3.84101015	     10.70097206	      3.60410771	      0.61181316	    -13.79997600	      8.73981642	      1.13165160	      0.08355588	    -10.93568565	     -3.83566125	      0.93594157
      1.11233333	     -2.01867346	      2.21958922	     -5.15821591	      0.17118362	      1.07529873	      0.28061855	     20.57402710	     -5.76235163	     -4.84188339	    -71.15674128	     -1.30385527	    -10.02129511	      3.82490276	     10.17781563	      3.48823449	      0.59076333	    -13.34489380	      8.74431244	      1.26827955	      0.09249987	    -11.03518478	     -3.65530745	      0.81085249
      1.11650000	     -1.96979668	      2.10315511	     -5.10875295	      0.17596024	      1.07624162	      0.28038196	     21.00125779	     -5.62081697	     -4.99593750	    -70.79090959	     -0.99480705	     -9.75603538	      3.80677072	      9.60994922	      3.39727843	      0.58663696	    -12.88136675	      8.80307871	      1.41571136	      0.10965107	    -11.16834073	     -3.49872326	      0.59654535
      1.12066667	     -1.95598784	      1.97176517	     -5.05379653	      0.18072069	      1.07708170	      0.28015262	     21.45183459	     -5.45119378	     -5.14923207	    -70.36731363	     -0.69232792	     -9.48061031	      3.80418754	      9.08974720	      3.28378282	      0.58051469	    -12.43648820	      8.81970767	      1.56374476	      0.12237583	    -11.27699480	     -3.31781499	      0.44842729
      1.12483333	     -1.89170871	      1.86226190	     -4.99026779	      0.18548525	      1.07795416	      0.27990220	     21.83519513	     -5.32096541	     -5.31692608	    -69.89662072	     -0.36687694	     -9.12907916	      3.80945731	      8.51315038	      3.20040539	      0.57761311	    -11.98218529	      8.87402901	      1.71635932	      0.14047537	    -11.42606047	     -3.16420527	      0.24090350
      1.12900000	     -1.87262523	      1.74591478	     -4.91540780	      0.19025437	      1.07869463	      0.27965618	     22.25198427	     -5.17427374	     -5.48932296	    -69.37387335	     -0.04442988	     -8.76004714	      3.82438409	      7.99552786	      3.10358330	      0.58219408	    -11.54820470	      8.91510315	      1.87154230	      0.15972161	    -11.53073727	     -2.99584018	      0.04955844
      1.13316667	     -1.84820742	      1.62861681	     -4.83891248	      0.19501860	      1.07940452	      0.27941360	     22.64767422	     -5.02455033	     -5.66115668	    -68.79424395	      0.27081935	     -8.38062425	      3.84489682	      7.47709142	      3.00428404	      0.58064783	    -11.12255407	      8.92474283	      2.02069758	      0.17276565	    -11.64494735	     -2.82700278	     -0.09331828
      1.13733333	     -1.78909217	      1.53852512	     -4.75438260	      0.19976799	      1.08007378	      0.27915884	     23.00271749	     -4.91612795	     -5.84067914	    -68.18902049	      0.61260240	     -7.93774664	      3.88183783	      6.92385036	      2.93902166	      0.59592656	    -10.69660382	      9.00702746	      2.18175901	      0.19715288	    -11.79469267	     -2.69259680	     -0.33519407
      1.14150000	     -1.77512526	      1.42821524	     -4.66144928	      0.20454767	      1.08066750	      0.27891911	     23.37945470	     -4.77253073	     -6.02320242	    -67.50988599	      0.91975259	     -7.52825290	      3.91377854	      6.42627414	      2.84405221	      0.60690892	    -10.28818930	      9.02533879	      2.33054357	      0.21139556	    -11.89202200	     -2.52778780	     -0.47621051
      1.14566667	     -1.72433927	      1.35804719	     -4.57086544	      0.20929843	      1.08119656	      0.27867766	     23.72147984	     -4.68232573	     -6.19987949	    -66.81800823	      1.26157942	     -7.05506352	      3.96950214	      5.89200186	      2.79667294	      0.62558956	     -9.87687080	      9.11370998	      2.48826597	      0.23796624	    -12.03184435	     -2.41451015	     -0.72610883
      1.14983333	     -1.69540813	      1.27913411	     -4.47293512	      0.21406791	      1.08165490	      0.27844371	     24.06671915	     -4.57632986	     -6.37971806	    -66.06750570	      1.57715998	     -6.61034691	      4.02653636	      5.38890468	      2.73535778	      0.64586517	     -9.48349955	      9.17841191	      2.63808881	      0.26182068	    -12.14242721	     -2.28766231	     -0.91739197
      1.15400000	     -1.67060341	      1.20305888	     -4.37267681	      0.21883983	      1.08205819	      0.27821604	     24.40148581	     -4.47022739	     -6.55798049	    -65.26756464	      1.88341287	     -6.17353246	      4.09295797	      4.89388919	      2.67479867	      0.66680806	     -9.09604556	      9.24227153	      2.79194146	      0.28761322	    -12.25001553	     -2.16132408	     -1.11715832
      1.15816667	     -1.64987357	      1.14985047	     -4.27495864	      0.22361927	      1.08237466	      0.27801331	     24.73507206	     -4.38457514	     -6.72308175	    -64.43703227	      2.18728356	     -5.74235180	      4.16697464	      4.40815215	      2.63699434	      0.68876364	     -8.71716186	      9.30993206	      2.93983233	      0.31491688	    -12.35016066	     -2.06476294	     -1.31355551
      1.16233333	     -1.65346081	      1.07791529	     -4.17160275	      0.22841830	      1.08262863	      0.27781761	     25.06916570	     -4.27214014	     -6.89407384	    -63.53989943	      2.45605599	     -5.35276187	      4.21889543	      3.95554626	      2.57422029	      0.70722838	     -8.35677341	      9.36420968	      3.07745151	      0.33212762	    -12.41510485	     -1.94892204	     -1.44673994
      1.16650000	     -1.64341744	      1.02871079	     -4.07120086	      0.23321980	      1.08281705	      0.27762823	     25.38360179	     -4.18603356	     -7.05571667	    -62.61757310	      2.73490294	     -4.94775718	      4.27418814	      3.48871460	      2.53676784	      0.73146262	     -7.99483541	      9.44376636	      3.22311507	      0.35029791	    -12.49989956	     -1.85418938	     -1.61314886
      1.17066667	     -1.64800444	      0.99353017	     -3.97226190	      0.23803025	      1.08292178	      0.27746344	     25.70264804	     -4.10813873	     -7.20484241	    -61.65530849	      2.99775543	     -4.56796828	      4.33347985	      3.04374920	      2.51112075	      0.75671737	     -7.64569400	      9.53305512	      3.36227877	      0.36978789	    -12.56134069	     -1.78106767	     -1.79254084
      1.17483333	     -1.66471935	      0.98361290	     -3.87873339	      0.24284574	      1.08292688	      0.27732264	     26.02986255	     -4.05260313	     -7.33896575	    -60.66570556	      3.25433150	     -4.20394315	      4.39719465	      2.61509240	      2.51057585	      0.78035930	     -7.30031265	      9.62269830	      3.49420654	      0.39000711	    -12.60757260	     -1.73253460	     -1.97435501
      1.17900000	     -1.66575815	      0.98597223	     -3.78704184	      0.24766041	      1.08289694	      0.27719335	     26.32851444	     -4.00864475	     -7.46409227	    -59.63901601	      3.50280548	     -3.85148760	      4.50497561	      2.17088555	      2.52417523	      0.81016628	     -6.95773691	      9.73584955	      3.62621022	      0.42402977	    -12.67413211	     -1.69991772	     -2.21981005
